<?xml version="1.0" encoding="UTF-8" standalone="no"?>
<svg
   version="1.1"
   x="0px"
   y="0px"
   viewBox="0 0 58 58.099998"
   xml:space="preserve"
   id="svg7"
   width="58"
   height="58.099998"
   xmlns:xlink="http://www.w3.org/1999/xlink"
   xmlns="http://www.w3.org/2000/svg"
   xmlns:svg="http://www.w3.org/2000/svg"
   xmlns:rdf="http://www.w3.org/1999/02/22-rdf-syntax-ns#"
   xmlns:cc="http://creativecommons.org/ns#"><defs
     id="defs7"><linearGradient
       id="linearGradient13"><stop
         style="stop-color:#e98c00;stop-opacity:1;"
         offset="0"
         id="stop13" /><stop
         style="stop-color:#ffff00;stop-opacity:1;"
         offset="1"
         id="stop14" /></linearGradient><linearGradient
       xlink:href="#linearGradient13"
       id="linearGradient14"
       x1="4.5233717"
       y1="32.006397"
       x2="59.447266"
       y2="32.006397"
       gradientUnits="userSpaceOnUse" /></defs><g
     id="g14"
     transform="translate(-3,-3)"><g
       id="g11"><path
         id="path12"
         style="fill:url(#linearGradient14);fill-opacity:1;stroke:none;stroke-width:0.0361011;stroke-linecap:round;stroke-linejoin:round;stroke-opacity:1"
         d="m 31.808594,4.5351562 c -1.197819,0.00886 -2.47127,0.3047853 -3.367188,1.1445313 -0.642715,0.5864267 -0.89605,1.4675805 -0.935547,2.3125 0.0098,0.3496337 -0.25783,0.6298047 -0.570312,0.7441406 C 26.48802,8.9837014 25.994712,9.1609213 25.583984,9.4667969 25.498142,9.5375625 25.433842,9.6251561 25.380859,9.71875 25.217148,9.6461195 25.034409,9.6057773 24.859375,9.5761719 24.56038,9.4119023 24.477099,9.0361738 24.230469,8.8125 23.549106,8.0175743 22.478299,7.6872477 21.457031,7.7089844 c -1.776977,0.041103 -3.502593,0.807607 -4.822265,1.9804687 -0.864976,0.7789799 -1.557717,1.9007699 -1.460938,3.1035159 0.03026,0.404189 0.204501,0.778225 0.332031,1.154297 0.05414,0.3602 -0.225322,0.643498 -0.347656,0.96289 -0.185648,0.437508 -0.515545,0.872081 -0.535156,1.355469 -0.132691,0.05503 -0.259457,0.123373 -0.367188,0.214844 -0.397641,0.217294 -0.792682,-0.175317 -1.166015,-0.271485 -0.408709,-0.154992 -0.846121,-0.235265 -1.283203,-0.234375 -1.557928,0.02283 -2.8511103,1.2052 -3.5117191,2.541016 -0.7130979,1.448885 -0.9933275,3.238853 -0.265625,4.738281 0.2707162,0.644481 0.8243095,1.088014 1.375,1.484375 0.1178332,0.158317 0.1224165,0.364059 0.1601562,0.556641 -0.1576696,0.147427 -0.2793381,0.338513 -0.3710937,0.533203 -0.2690167,0.502731 -0.5002973,1.028955 -0.7929688,1.517578 -0.2317979,0.24147 -0.5900354,0.130803 -0.8828125,0.199219 -0.791542,0.08615 -1.5462182,0.481897 -2.0371093,1.113281 -0.7534041,0.951473 -0.961358,2.2089 -0.9570313,3.392578 0.00897,1.166108 0.2320468,2.40198 0.9882813,3.328125 0.5480752,0.685104 1.4108992,1.067592 2.2792968,1.09961 0.2120706,0.01913 0.4690825,-0.0067 0.609375,0.191406 0.1755142,0.188895 0.2437771,0.454856 0.375,0.675781 0.2606923,0.503555 0.4941672,1.023126 0.78125,1.511719 0.00616,0.0094 0.014997,0.0163 0.021484,0.02539 -0.034419,0.06561 -0.063159,0.136334 -0.082031,0.210938 -0.1458591,0.327102 -0.5336127,0.429893 -0.7617188,0.689453 -0.7648508,0.698446 -1.1424652,1.755813 -1.0859375,2.78125 -0.030305,0.715 0.072848,1.432397 0.3300781,2.101563 0.4728442,1.355264 1.4144935,2.653565 2.7968756,3.173828 0.900275,0.313214 1.921435,0.214177 2.765625,-0.220703 0.228685,-0.118431 0.500514,-0.250442 0.75,-0.103516 0.08415,0.06736 0.180615,0.11882 0.28125,0.160156 0.0028,0.08068 0.01564,0.161477 0.04101,0.242188 0.264529,0.662803 0.622535,1.28799 0.927735,1.933593 0.02409,0.196437 -0.01566,0.379942 -0.119141,0.558594 -0.338837,0.715945 -0.338929,1.564785 -0.02539,2.289063 0.552782,1.301909 1.711898,2.25083 2.949219,2.875 1.113719,0.537971 2.351992,0.920441 3.601563,0.787109 1.022547,-0.04473 2.027739,-0.575413 2.566406,-1.458984 0.118791,-0.203765 0.308439,-0.450357 0.566406,-0.41211 0.114491,0.0053 0.230903,-0.0051 0.34375,-0.03125 0.119273,0.151378 0.276172,0.275388 0.455078,0.351563 0.493918,0.293081 1.052937,0.483724 1.509766,0.833984 0.20115,0.289057 0.09946,0.674305 0.1875,1 0.142476,0.931499 0.750129,1.757841 1.582031,2.19336 1.309534,0.70653 2.875669,0.756046 4.3125,0.496093 1.109186,-0.206764 2.224199,-0.823377 2.708985,-1.886718 0.25252,-0.506425 0.260533,-1.078697 0.345703,-1.625 0.04926,-0.301877 0.411227,-0.343815 0.621093,-0.496094 0.5273,-0.292297 1.098132,-0.514703 1.587891,-0.869141 0.02153,-0.01859 0.03711,-0.04214 0.05664,-0.0625 0.739744,0.09623 0.882175,1.031689 1.53125,1.320313 1.658077,1.154363 3.844652,0.559095 5.496093,-0.292969 1.436625,-0.767579 2.924624,-2.070593 2.957032,-3.822266 0.04601,-0.608235 -0.318806,-1.186419 -0.302735,-1.763671 0.262482,-0.798826 0.861594,-1.4985 0.966797,-2.333985 0.09763,0.0043 0.196452,-0.0018 0.294922,-0.02539 0.631822,-0.135263 1.124405,0.420289 1.738281,0.470704 1.853786,0.374572 3.555682,-1.045229 4.246094,-2.671875 0.650616,-1.497751 0.925167,-3.395687 0.01953,-4.847657 -0.308525,-0.577828 -1.019479,-0.861895 -1.273437,-1.447265 -0.02072,-0.162321 -0.08264,-0.308791 -0.171875,-0.435547 0.715366,-0.366287 0.793814,-1.41105 1.347656,-1.953125 0.571791,-0.231828 1.253405,-0.140686 1.804687,-0.484375 1.538821,-0.762502 1.995734,-2.663149 2.001954,-4.248047 -0.0036,-1.627296 -0.576361,-3.55764 -2.240235,-4.1875 -0.464712,-0.258448 -1.0278,-0.135753 -1.5,-0.306641 -0.510275,-0.499267 -0.64839,-1.435733 -1.242187,-1.822265 0.03931,-0.169956 0.05546,-0.346992 0.04102,-0.517578 -0.06986,-0.274948 0.156294,-0.478085 0.371094,-0.597657 0.964191,-0.6255 1.455609,-1.77904 1.501953,-2.898437 0.05955,-1.54953 -0.494698,-3.120059 -1.505859,-4.294922 -0.735741,-0.849991 -1.833022,-1.457041 -2.982422,-1.353516 -0.633397,0.03339 -1.221466,0.290185 -1.785156,0.556641 -0.232205,0.0324 -0.522233,-0.03655 -0.585938,-0.296875 -0.377102,-0.725697 -0.751536,-1.458098 -1.076172,-2.207031 0.197298,-0.49233 0.413912,-0.999617 0.390625,-1.542969 C 48.805564,11.1313 47.96736,10.055129 47.021484,9.2988281 45.890841,8.4104401 44.517511,7.8058353 43.085938,7.6386719 42.845014,7.6203402 42.602923,7.6131423 42.361328,7.6171875 41.417713,7.6123475 40.449404,7.9514425 39.8125,8.6679688 39.567892,8.8854911 39.462157,9.2145837 39.220703,9.4296875 39.087254,9.4985937 38.936902,9.5389011 38.794922,9.59375 38.700161,9.4989964 38.590361,9.419043 38.466797,9.3652344 37.863464,9.0136755 37.204695,8.7572772 36.623047,8.3710938 36.416307,8.1247507 36.510431,7.7645427 36.4375,7.4726562 36.335366,6.4010647 35.583181,5.4666179 34.611328,5.0371094 33.738192,4.6156601 32.765517,4.5255881 31.808594,4.5351562 Z m 0.08398,5.9511718 c 0.576243,-0.003 1.151926,0.0173 1.72461,0.0625 1.370574,0.101148 2.732797,0.337078 4.05664,0.701172 0.217284,0.09256 0.46075,0.09768 0.685547,0.03711 0.04207,0.04553 0.08829,0.08811 0.140625,0.125 0.448257,0.285058 0.985046,0.387367 1.464844,0.609375 1.103272,0.444158 2.197556,0.996425 3.193359,1.605469 3.449992,2.097989 6.335617,5.225618 8.128906,8.871094 0.521496,1.034961 0.928232,2.123252 1.298829,3.21875 0.06764,0.185543 0.197229,0.33183 0.355468,0.4375 -0.07548,0.3315 -0.03335,0.710631 0.06055,1.033203 0.734279,3.251255 0.689956,6.666044 -0.05469,9.898438 -0.148358,0.36637 -0.09299,0.786617 0.105468,1.101562 -0.806566,0.427016 -0.841166,1.551849 -1.24414,2.244141 -0.849987,1.995784 -2.058198,3.816315 -3.365235,5.533203 -0.09016,0.165031 -0.11416,0.331061 -0.107421,0.492187 -0.02388,0.0019 -0.04849,0.0022 -0.07227,0.0059 -0.958655,0.407282 -1.545142,1.36915 -2.382813,1.966797 -2.146682,1.808838 -4.640442,3.200621 -7.292968,4.101562 -0.119569,0.04909 -0.216569,0.118674 -0.296875,0.201172 -0.102036,-0.02327 -0.206022,-0.03659 -0.308594,-0.0293 -0.650327,0.104519 -1.277809,0.324083 -1.929688,0.427734 -3.141682,0.592491 -6.412357,0.486214 -9.507812,-0.314453 -0.184495,-0.05083 -0.378762,-0.04739 -0.560547,0.002 -0.124666,-0.143261 -0.285224,-0.255036 -0.472656,-0.30664 -2.602873,-0.838086 -5.050422,-2.161135 -7.154297,-3.910157 -0.695555,-0.553164 -1.306834,-1.194379 -1.966797,-1.78125 -0.119205,-0.09518 -0.256953,-0.166565 -0.402344,-0.210937 -0.03382,-0.214446 -0.127222,-0.421049 -0.279297,-0.578125 -1.138666,-1.346344 -2.135017,-2.823402 -2.921875,-4.388672 -0.459849,-0.890346 -0.827036,-1.823684 -1.179687,-2.759766 -0.05782,-0.138765 -0.15077,-0.258426 -0.261719,-0.355468 0.04997,-0.207464 0.03983,-0.430679 -0.03125,-0.632813 -0.488949,-1.713765 -0.763833,-3.490098 -0.8125,-5.271484 -0.01052,-1.037096 -0.0035,-2.07765 0.134766,-3.107422 0.123064,-1.10701 0.348124,-2.199396 0.632812,-3.275391 0.03351,-0.161171 0.02228,-0.32669 -0.02539,-0.480468 0.07605,-0.07226 0.141706,-0.155621 0.189453,-0.253907 0.411256,-0.957548 0.735619,-1.954398 1.21289,-2.884765 0.820578,-1.71938 1.906129,-3.298684 3.132813,-4.751953 0.124882,-0.138956 0.197606,-0.310037 0.230469,-0.488282 0.0874,-0.02383 0.173428,-0.05972 0.253906,-0.111328 0.511836,-0.394103 0.9381,-0.891117 1.433594,-1.30664 1.744497,-1.566368 3.747121,-2.837762 5.904296,-3.75586 0.583848,-0.267847 1.196708,-0.469245 1.796876,-0.691406 0.187983,-0.07899 0.331025,-0.221858 0.427734,-0.392578 0.292506,0.128826 0.64134,0.102377 0.947266,0.0078 1.658256,-0.41395 3.390419,-0.635618 5.11914,-0.644531 z m -0.05859,1.044922 c -3.210549,-0.0043 -6.410081,0.825259 -9.255859,2.300781 -3.48301,1.82719 -6.442034,4.659399 -8.378906,8.085938 -0.101747,0.193328 -0.128953,0.409585 -0.0957,0.617187 -0.219403,0.105759 -0.406854,0.267786 -0.511719,0.503906 -1.268312,2.646177 -2.014465,5.553054 -2.068359,8.492188 -0.11775,4.547777 1.366621,9.107206 4.107421,12.734375 3.004144,4.03361 7.543847,6.886449 12.482422,7.839844 1.490967,0.292862 3.01276,0.412184 4.53125,0.359375 4.235944,-0.114593 8.412205,-1.623434 11.767578,-4.207032 3.913386,-2.986525 6.715656,-7.409787 7.667969,-12.246093 0.889965,-4.396338 0.277127,-9.088333 -1.740234,-13.095703 -0.09588,-0.188847 -0.254247,-0.315751 -0.435547,-0.400391 0.02272,-0.156104 0.01345,-0.317188 -0.04492,-0.470703 -0.322747,-0.656013 -0.749199,-1.257667 -1.160156,-1.861328 -2.396302,-3.380049 -5.829773,-6.012334 -9.72461,-7.429688 -2.273968,-0.827178 -4.695233,-1.264014 -7.117187,-1.222656 z m -2.207031,2.966797 c 0.273968,0.01052 0.622959,-0.05896 0.792969,0.214844 0.170238,0.241436 0.08368,0.618472 -0.189453,0.746093 -0.286764,0.09094 -0.604642,0.04479 -0.902344,0.07813 -3.98768,0.161524 -7.849083,2.094915 -10.414063,5.144532 -1.800408,2.112824 -2.980926,4.781147 -3.320312,7.519531 -0.0208,0.09305 -0.04324,0.350305 0.02344,0.501953 0.123201,0.500821 0.6534,0.786211 1.146484,0.759766 0.862433,0.0072 1.726598,0.01994 2.58789,-0.0039 0.109911,0.207476 0.288831,0.378248 0.515626,0.458985 0.369218,0.12949 0.7705,0.04762 1.154296,0.07031 1.563061,-0.0073 3.12675,0.0181 4.689454,-0.01758 0.35894,0.0013 0.69971,-0.205042 0.880859,-0.505859 0.347357,0.03588 0.708459,-0.01777 1.056641,0.0059 0.514894,-0.02569 1.128891,0.119093 1.529296,-0.296875 0.397511,-0.378461 0.275514,-0.959837 0.292969,-1.451172 -0.0031,-2.34928 0.0069,-4.700066 -0.0039,-7.048828 -0.0058,-0.538394 -0.501892,-0.983308 -1.029297,-0.964844 -0.03516,0.0012 -0.07017,0.0043 -0.105469,0.0098 l -0.03516,0.0039 -0.0039,0.002 c -1.72845,0.360913 -3.375136,1.116335 -4.78711,2.175782 -1.160777,0.885817 -2.177345,2.037454 -2.677734,3.425781 -0.130293,0.533069 0.239947,1.11218 0.78125,1.21289 0.916446,0.07291 1.838737,0.02365 2.757813,0.03906 0.501276,0.0431 0.995617,-0.302864 1.097656,-0.800781 0.05705,-0.601904 5.04e-4,-1.216701 0.05273,-1.814453 0.108667,-0.260273 0.458122,-0.503236 0.71875,-0.289063 0.19188,0.112993 0.298788,0.32384 0.265625,0.544922 0.02618,1.005673 0.04436,2.016551 -0.01758,3.007812 -0.0309,0.08417 -0.08153,0.150088 -0.140625,0.208985 -0.141232,-0.138856 -0.320941,-0.238461 -0.519531,-0.271485 -0.562404,-0.06857 -1.133717,-0.02732 -1.699219,-0.04102 -1.284678,0.0024 -2.569299,-0.0079 -3.853516,0.0039 l -0.164062,0.01953 c -0.182354,0.03872 -0.346098,0.132133 -0.476563,0.259766 -0.196539,-0.219726 -0.08066,-0.544229 -0.109375,-0.814453 0.06746,-1.173288 0.571786,-2.287323 1.226563,-3.248047 1.353182,-1.921917 3.392663,-3.281764 5.582031,-4.080078 1.214202,-0.429774 2.506963,-0.711944 3.798828,-0.654297 0.245892,0.09909 0.419385,0.352717 0.367188,0.623047 0.01895,1.068484 -0.01689,2.167766 0.01758,3.248047 0.0094,0.15285 0.06282,0.292276 0.140625,0.416015 -0.118381,0.19932 -0.17838,0.436548 -0.152344,0.671875 -0.01092,2.208608 -0.0018,4.421685 -0.02539,6.626953 -0.126723,0.213719 -0.371205,0.339899 -0.61914,0.289063 H 14.826172 C 14.58423,30.393005 14.457592,30.13474 14.5,29.884766 c -0.03122,-2.120055 0.48775,-4.20304 1.298828,-6.138672 0.04589,-0.13565 0.0555,-0.276464 0.03906,-0.414063 0.08276,-0.05465 0.160179,-0.119996 0.222656,-0.203125 0.291407,-0.433566 0.503919,-0.920678 0.798828,-1.355468 1.477162,-2.326565 3.555533,-4.26539 6.013672,-5.541016 2.076575,-1.088177 4.410164,-1.688238 6.753906,-1.734375 z m 4.220703,0.01758 c 0.04315,-0.0082 0.0898,-0.0083 0.138672,0 2.356412,-0.06473 4.740489,0.527063 6.861328,1.574219 2.065102,1.016051 3.940514,2.552766 5.359375,4.363281 0.650484,0.803536 1.173081,1.700159 1.675781,2.599609 0.07307,0.105103 0.163744,0.191499 0.267579,0.257813 -0.0022,0.03121 -0.009,0.06191 -0.0078,0.09375 0.02225,0.462317 0.314298,0.858713 0.4375,1.298828 0.467276,1.320244 0.783109,2.711568 0.884766,4.09375 0.02251,0.435193 0.09411,0.88055 0.02344,1.3125 -0.0778,0.230207 -0.29523,0.408836 -0.546875,0.363281 -2.414861,0.05152 -4.836976,0.01213 -7.257812,0.01953 -2.612504,-0.008 -5.230267,0.0048 -7.839844,-0.01563 -0.216138,-0.10853 -0.388019,-0.333611 -0.337891,-0.585937 -0.03613,-2.178867 -5.13e-4,-4.372337 -0.02734,-6.558594 -0.0055,-0.161225 -0.0599,-0.308673 -0.140625,-0.439453 0.185556,-0.316772 0.152807,-0.73029 0.15039,-1.091797 0.01165,-0.97672 -0.02623,-1.950706 0.02344,-2.916015 0.103647,-0.297792 0.430622,-0.460713 0.734375,-0.400391 2.201175,0.103222 4.336367,0.89688 6.183594,2.076172 1.712914,1.132998 3.203545,2.744089 3.826171,4.734375 0.156828,0.577868 0.281945,1.180743 0.246094,1.78125 -0.0474,0.168566 -0.161747,0.271996 -0.294922,0.357422 -0.06115,-0.08362 -0.138495,-0.157553 -0.238281,-0.21875 -0.50972,-0.311049 -1.14087,-0.1252 -1.707031,-0.175782 h -1.285157 c -0.876278,0.02084 -1.761264,-0.04232 -2.632812,0.0332 -0.244428,0.03363 -0.443676,0.168561 -0.583984,0.353515 -0.211337,-0.142244 -0.305995,-0.394299 -0.275391,-0.642578 -0.01067,-0.958321 -0.03271,-1.909058 0.01758,-2.871094 0.07792,-0.221448 0.310849,-0.462507 0.564453,-0.412109 0.286169,0.06833 0.482255,0.351087 0.451172,0.644531 0.04788,0.543572 -0.04316,1.099746 0.06641,1.634766 0.145049,0.484602 0.667803,0.756134 1.154297,0.697265 0.878751,-0.01435 1.760365,0.03084 2.636719,-0.03711 0.559907,-0.10194 0.937325,-0.719328 0.773438,-1.263672 -0.505619,-1.340383 -1.507942,-2.430408 -2.605469,-3.322265 -1.417039,-1.106504 -3.092442,-1.899918 -4.861328,-2.236328 -0.09594,-0.0022 -0.192966,0.0045 -0.289063,0.0059 -0.525781,0.08569 -0.882881,0.606182 -0.853516,1.125 -0.04357,2.574329 -0.0121,5.14801 -0.02148,7.722656 -0.0017,0.546963 0.486518,1.020811 1.033203,1 0.685515,-0.01339 1.374549,0.01652 2.058594,-0.01953 0.108637,0.221449 0.293577,0.40282 0.544922,0.480469 0.540204,0.149901 1.124216,0.03362 1.681641,0.07031 1.243899,-0.0215 2.49354,0.04661 3.734374,-0.04687 0.317361,-0.03996 0.57787,-0.238561 0.734376,-0.5 0.217758,0.02648 0.446067,0.01739 0.658203,0.01563 0.869686,-0.01195 1.741794,0.02528 2.609375,-0.01758 0.57386,-0.05244 0.97082,-0.670492 0.841796,-1.220703 -0.323518,-2.523436 -1.312654,-4.958309 -2.867187,-6.97461 -0.683332,-0.901677 -1.491213,-1.707268 -2.351563,-2.439453 -2.485289,-2.041011 -5.656244,-3.234063 -8.875,-3.294921 -0.268284,-0.005 -0.608877,0.009 -0.761718,-0.261719 -0.164013,-0.264207 -0.01301,-0.688764 0.289062,-0.746094 z m 11.78125,18.974609 c 1.179262,0.0065 2.343559,-0.01265 3.50586,0.02734 0.292571,0.115522 0.43239,0.445112 0.380859,0.744141 -0.05131,2.754912 -0.847706,5.490502 -2.298828,7.833984 -2.152024,3.523915 -5.756118,6.126901 -9.787109,7.033203 -1.154122,0.257798 -2.343077,0.403914 -3.525391,0.371094 -0.302643,-0.08887 -0.562316,-0.508298 -0.302735,-0.775391 0.126571,-0.201459 0.358977,-0.248268 0.580079,-0.232421 1.776487,-0.06633 3.555059,-0.371993 5.203125,-1.054688 3.933404,-1.564014 7.104261,-4.930317 8.414062,-8.957031 0.305895,-0.968343 0.568386,-1.966089 0.626953,-2.982422 0.01456,-0.56901 -0.538333,-1.031105 -1.09375,-0.980469 -1.027737,0.01059 -2.057867,-0.01621 -3.083984,0.01758 -6.51e-4,3.8e-5 -0.0013,-3.9e-5 -0.002,0 -0.344124,-0.588717 -1.110403,-0.501309 -1.695313,-0.513672 -1.367668,0.0048 -2.738235,-0.02364 -4.103515,0.01367 -0.08111,0.01414 -0.163032,0.02689 -0.244141,0.04102 -0.230307,0.08405 -0.40591,0.250621 -0.517578,0.453125 -0.0827,-0.0091 -0.165556,-0.01931 -0.25,-0.01953 -0.249398,-6.55e-4 -0.503037,0.02621 -0.746094,0.0078 -0.480263,0.01591 -0.967407,-0.03742 -1.443359,0.03711 -0.484138,0.136739 -0.784315,0.641202 -0.728516,1.132812 0.0097,2.479248 -0.02117,4.958584 0.01953,7.4375 -0.02204,0.529771 0.34214,1.070051 0.888672,1.138672 0.516179,0.04421 1.0083,-0.184964 1.5,-0.310547 1.019105,-0.325005 1.976727,-0.82308 2.888672,-1.376953 1.392768,-0.905185 2.641347,-2.130755 3.296875,-3.679688 0.211828,-0.50357 -0.05523,-1.13473 -0.574219,-1.316406 -0.475756,-0.133275 -0.98166,-0.0399 -1.470703,-0.06836 -0.600565,0.01889 -1.206298,-0.04195 -1.802734,0.03711 -0.483814,0.136673 -0.785729,0.641484 -0.730469,1.132813 -0.01474,0.481237 0.0301,0.95496 -0.04883,1.4375 -0.09221,0.312986 -0.537183,0.533675 -0.787109,0.255859 -0.308144,-0.240154 -0.187187,-0.658896 -0.220704,-0.992188 0.0019,-0.827213 -0.02874,-1.660137 0.0293,-2.484374 0.05381,-0.170668 0.180956,-0.265595 0.320313,-0.347657 0.268722,0.327545 0.753832,0.450547 1.175781,0.419922 1.509339,0.0094 3.022254,0.02796 4.529297,-0.0059 0.292529,-0.01448 0.538725,-0.173163 0.699219,-0.396485 0.244159,0.15014 0.325951,0.448201 0.279297,0.71875 -0.08935,1.571002 -0.820172,3.058568 -1.851563,4.226563 -0.659021,0.706964 -1.360312,1.38374 -2.183594,1.898437 -1.698061,1.158381 -3.694687,1.891389 -5.74414,2.072266 -0.302777,-0.0015 -0.633615,0.08142 -0.919922,-0.03125 -0.226024,-0.116102 -0.360444,-0.366368 -0.306641,-0.619141 V 33.892578 c 0.10256,-0.262915 0.374197,-0.454226 0.66211,-0.388672 3.821389,-0.0044 7.641499,-0.01152 11.46289,-0.01367 z m -18.36914,0.002 c 0.979955,0.0085 1.948736,-0.01552 2.927734,0.04102 0.173076,0.118368 0.355075,0.300754 0.296875,0.53125 -0.0022,3.616239 0.02847,7.242838 -0.002,10.851563 0.05476,0.253103 -0.127304,0.45584 -0.333984,0.570312 -1.995331,0.06911 -3.946634,-0.592978 -5.689454,-1.519531 -1.881602,-1.022074 -3.609771,-2.520413 -4.470703,-4.521485 -0.339414,-0.813993 -0.536419,-1.703803 -0.472656,-2.58789 0.04365,-0.111629 0.12319,-0.186164 0.212891,-0.25 0.108704,0.134721 0.249675,0.24211 0.417968,0.300781 0.369176,0.121505 0.768323,0.05637 1.150391,0.08008 1.422279,0.0059 2.845746,0.01059 4.267578,0 0.288053,-0.0057 0.550411,-0.156078 0.726563,-0.375 0.0049,0.0035 0.01077,0.0061 0.01563,0.0098 0.273541,0.19985 0.176068,0.559066 0.207031,0.847656 0.0094,0.887463 0.03259,1.779575 -0.0332,2.664063 -0.106916,0.299543 -0.517453,0.507463 -0.777344,0.255859 -0.306224,-0.233584 -0.173802,-0.650613 -0.207031,-0.980469 -0.04311,-0.492607 0.102342,-1.052711 -0.207032,-1.480468 -0.248458,-0.375056 -0.727022,-0.453777 -1.144531,-0.417969 -0.846509,0.01496 -1.697354,-0.03314 -2.541015,0.04102 -0.546882,0.104789 -0.918402,0.704833 -0.767578,1.240235 0.37234,1.00523 1.045952,1.878961 1.828124,2.603515 1.553941,1.418911 3.493725,2.418576 5.550782,2.861328 0.589302,0.126284 1.189722,-0.349857 1.222656,-0.947265 0.0623,-1.325321 0.01983,-2.655811 0.0332,-3.982422 -0.0092,-1.304083 0.01876,-2.609634 -0.01367,-3.912109 -0.03169,-0.51696 -0.520466,-0.906324 -1.023437,-0.904297 -0.03353,1.35e-4 -0.06608,0.0022 -0.09961,0.0059 -0.309149,4.64e-4 -0.61857,0.0015 -0.927734,0.002 -0.312362,0.0221 -0.644288,-0.01374 -0.960938,0.01758 -0.09596,-0.183522 -0.245805,-0.337458 -0.439453,-0.425781 -0.376879,-0.177735 -0.805324,-0.07996 -1.207031,-0.105469 -1.472588,0.0034 -2.945837,-0.0061 -4.417969,0.0059 l -0.164062,0.01758 c -0.288124,0.0601 -0.531489,0.258186 -0.667969,0.511719 -0.211804,-0.02022 -0.430347,-0.01651 -0.632812,-0.01953 -0.831358,0.0075 -1.664892,-0.02745 -2.494141,0.01367 -0.583795,0.05252 -0.983369,0.690067 -0.835937,1.246094 0.209527,1.620992 0.690326,3.229425 1.443359,4.691406 0.736454,1.453807 1.715237,2.782461 2.894531,3.908203 1.596613,1.569235 3.578255,2.741165 5.708984,3.421875 1.423793,0.470412 2.922103,0.642536 4.414063,0.705078 0.283217,0.03024 0.548816,0.372394 0.423828,0.654297 -0.13747,0.303454 -0.487049,0.405391 -0.794922,0.355469 -3.490999,-0.08043 -6.94064,-1.372404 -9.611328,-3.625 -2.480998,-2.076979 -4.311592,-4.939066 -5.097656,-8.082031 -0.249625,-0.963499 -0.420417,-2.006709 -0.453125,-3.035156 0.0095,-0.322038 -0.06424,-0.658089 0.01563,-0.972657 0.092,-0.208644 0.306821,-0.359239 0.541015,-0.298828 4.063368,-0.0038 8.126085,-0.0097 12.189454,-0.01172 z" /></g><g
       id="g6"
       style="fill:#c74800;fill-opacity:1;stroke:none;stroke-opacity:1"><path
         d="m 61,32 c 0,-3 -1.4,-5.6 -4.4,-6 L 56.2,25.3 C 60.5,21.7 55.7,12.4 50.4,14.7 L 50.1,14 C 52.2,8.4 42.3,3.4 38.7,7.7 L 38,7.4 C 37.6,4.4 35,3 32,3 29,3 26.4,4.4 26,7.4 L 25.3,7.8 C 21.7,3.4 11.8,8.4 13.9,14 l -0.3,0.7 C 8.2,12.5 3.5,21.7 7.8,25.3 L 7.4,26 c -3,0.3 -4.4,3 -4.4,6 0,3 1.4,5.6 4.4,6 l 0.4,0.7 c -4.3,3.7 0.4,12.9 5.8,10.6 l 0.3,0.7 c -2.1,5.6 7.8,10.6 11.4,6.3 l 0.7,0.4 c 0.4,3 3,4.4 6,4.4 3,0 5.6,-1.4 6,-4.4 l 0.7,-0.4 c 3.6,4.3 13.5,-0.7 11.4,-6.3 l 0.3,-0.7 c 5.4,2.2 10.1,-7 5.8,-10.6 L 56.6,38 c 3,-0.4 4.4,-3 4.4,-6 z m -5,4 c -0.4,0 -0.7,0.2 -0.9,0.5 l -1,2 c -0.2,0.5 -0.1,1 0.4,1.3 3.3,1.9 0.3,9.7 -4,7.3 C 50,46.8 49.3,47 49.1,47.5 l -1,2 c -0.2,0.3 -0.1,0.7 0,1 1.8,3.6 -6.4,7.6 -8.3,4 C 39.5,54 39,53.9 38.5,54.1 l -2,1 C 36.2,55.3 36,55.6 36,56 c 0,2.7 -2.8,3 -4,3 -1.2,0 -4,-0.3 -4,-3 0,-0.4 -0.2,-0.7 -0.5,-0.9 l -2,-1 c -0.5,-0.2 -1,-0.1 -1.3,0.4 -1.9,3.6 -10.1,-0.4 -8.3,-4 0.2,-0.3 0.2,-0.7 0,-1 l -1,-2 C 14.7,47 14,46.8 13.5,47.1 9.2,49.5 6.2,41.7 9.5,39.8 10,39.5 10.1,39 9.9,38.5 l -1,-2 C 8.7,36.2 8.4,36 8,36 5.3,36 5,33.2 5,32 5,30.8 5.3,28 8,28 8.4,28 8.7,27.8 8.9,27.5 l 1,-2 c 0.2,-0.5 0.1,-1 -0.4,-1.3 -3.3,-1.9 -0.4,-9.7 4,-7.3 0.5,0.3 1.1,0.1 1.4,-0.4 l 1,-2 c 0.2,-0.3 0.1,-0.7 0,-0.9 -1.8,-3.6 6.4,-7.6 8.3,-4 0.3,0.5 0.8,0.6 1.3,0.4 l 2,-1 C 27.8,8.7 28,8.4 28,8 c 0,-2.7 2.8,-3 4,-3 1.2,0 4,0.3 4,3 0,0.4 0.2,0.7 0.5,0.9 l 2,1 c 0.5,0.2 1,0.1 1.3,-0.4 1.9,-3.6 10.1,0.4 8.3,4 -0.2,0.3 -0.2,0.6 0,0.9 l 1,2 c 0.2,0.5 0.9,0.7 1.4,0.4 4.3,-2.4 7.3,5.4 4,7.3 -0.5,0.3 -0.6,0.8 -0.4,1.3 l 1,2 c 0.2,0.3 0.5,0.5 0.9,0.5 2.7,0 3,2.8 3,4 0,1.2 -0.3,4.1 -3,4.1 z"
         id="path1"
         style="display:inline;fill:#c74800;fill-opacity:1;stroke:none;stroke-opacity:1" /><path
         d="M 32,54 C 19.9,54 10,44.1 10,32 10,19.9 19.9,10 32,10 44.1,10 54,19.9 54,32 54,44.1 44.1,54 32,54 Z M 32,12 C 21,12 12,21 12,32 12,43 21,52 32,52 43,52 52,43 52,32 52,21 43,12 32,12 Z"
         id="path2"
         style="display:inline;fill:#c74800;fill-opacity:1;stroke:none;stroke-opacity:1" /><path
         d="M 30,31 H 15 c -0.6,0 -1,-0.5 -1,-1 0,-8.8 7.2,-16 16,-16 0.5,0 1,0.4 1,1 0,0.6 -0.5,1 -1,1 -7.4,0 -13.5,5.8 -14,13 h 13 v -8.9 c -1.7,0.2 -3.6,1 -5.1,2.1 -1.5,1.1 -2.5,2.5 -2.8,3.9 H 25 v -2 c 0,-0.5 0.5,-1 1,-1 0.5,0 1,0.5 1,1 v 3 c 0,0.5 -0.5,1 -1,1 h -6 c -0.5,0 -1,-0.5 -1,-1 0,-5 6,-9 11,-9 0.5,0 1,0.5 1,1 v 11 c 0,0.4 -0.5,0.9 -1,0.9 z"
         id="path3"
         style="display:inline;fill:#c74800;fill-opacity:1;stroke:none;stroke-opacity:1" /><path
         d="M 49,31 H 34 c -0.5,0 -1,-0.5 -1,-1 V 19 c 0,-0.5 0.5,-1 1,-1 2.4,0 5.1,1 7.2,2.5 2.4,1.8 3.8,4.1 3.8,6.5 0,0.5 -0.5,1 -1,1 h -6 c -0.5,0 -1,-0.5 -1,-1 v -3 c 0,-0.5 0.5,-1 1,-1 0.5,0 1,0.5 1,1 v 2 h 3.9 C 42.6,24.6 41.6,23.3 40.1,22.1 38.6,21 36.8,20.2 35,20 v 9 H 48 C 47.5,21.8 41.4,16 34,16 c -0.5,0 -1,-0.4 -1,-1 0,-0.6 0.5,-1 1,-1 8.8,0 16,7.2 16,16 0,0.5 -0.5,1 -1,1 z"
         id="path4"
         style="display:inline;fill:#c74800;fill-opacity:1;stroke:none;stroke-opacity:1" /><path
         d="m 30,50 c -8.8,0 -16,-7.2 -16,-16 0,-0.5 0.4,-1 1,-1 h 15 c 0.5,0 1,0.5 1,1 v 11 c 0,0.5 -0.5,1 -1,1 -2.4,0 -5.1,-1 -7.2,-2.5 C 20.3,41.7 19,39.4 19,37 c 0,-0.5 0.5,-1 1,-1 h 6 c 0.5,0 1,0.5 1,1 v 3 c 0,0.5 -0.5,1 -1,1 -0.5,0 -1,-0.5 -1,-1 v -2 h -3.9 c 0.3,1.4 1.3,2.7 2.8,3.8 1.5,1.1 3.4,1.9 5.1,2.1 V 35 H 16 c 0.5,7.2 6.6,13 14,13 0.5,0 1,0.5 1,1 0,0.5 -0.5,1 -1,1 z"
         id="path5"
         style="display:inline;fill:#c74800;fill-opacity:1;stroke:none;stroke-opacity:1" /><path
         d="m 34,50 c -0.5,0 -1,-0.5 -1,-1 0,-0.5 0.5,-1 1,-1 7.4,0 13.5,-5.8 14,-13 H 35 v 8.9 c 1.7,-0.2 3.6,-1 5.1,-2.1 1.5,-1.1 2.5,-2.5 2.8,-3.8 H 39 v 2 c 0,0.5 -0.5,1 -1,1 -0.5,0 -1,-0.5 -1,-1 v -3 c 0,-0.5 0.5,-1 1,-1 h 6 c 0.5,0 1,0.5 1,1 0,5 -6,9 -11,9 -0.5,0 -1,-0.5 -1,-1 V 34 c 0,-0.5 0.5,-1 1,-1 h 15 c 0.5,0 1,0.5 1,1 0,8.8 -7.2,16 -16,16 z"
         id="path6"
         style="fill:#c74800;fill-opacity:1;stroke:none;stroke-opacity:1" /></g></g><metadata
     id="metadata1"><rdf:RDF><cc:License
         rdf:about="http://creativecommons.org/licenses/by/3.0/"><cc:permits
           rdf:resource="http://creativecommons.org/ns#Reproduction" /><cc:permits
           rdf:resource="http://creativecommons.org/ns#Distribution" /><cc:requires
           rdf:resource="http://creativecommons.org/ns#Notice" /><cc:requires
           rdf:resource="http://creativecommons.org/ns#Attribution" /><cc:permits
           rdf:resource="http://creativecommons.org/ns#DerivativeWorks" /></cc:License><cc:Work
         rdf:about=""><cc:license
           rdf:resource="http://creativecommons.org/licenses/by/3.0/" /></cc:Work></rdf:RDF></metadata></svg>
